<svg width="25" height="25" viewBox="0 0 25 25" fill="none" xmlns="http://www.w3.org/2000/svg">
<path fill-rule="evenodd" clip-rule="evenodd" d="M6.75916 13.1359C10.8341 13.1359 11.0154 14.5179 11.0154 17.3921C11.0154 18.8322 11.0154 19.8567 10.4105 20.6068C9.71449 21.4711 8.44764 21.6483 6.75916 21.6483C5.07069 21.6483 3.80384 21.4711 3.10782 20.6068C2.50293 19.8567 2.50293 18.8332 2.50293 17.4171L3.25403 17.3921H2.50293C2.50293 14.5179 2.6842 13.1359 6.75916 13.1359ZM17.7753 13.1359C21.8503 13.1359 22.0315 14.5179 22.0315 17.3921C22.0315 18.8322 22.0315 19.8567 21.4266 20.6068C20.7306 21.4711 19.4638 21.6483 17.7753 21.6483C16.0868 21.6483 14.82 21.4711 14.124 20.6068C13.5191 19.8567 13.5191 18.8332 13.5191 17.4171L14.2702 17.3921H13.5191C13.5191 14.5179 13.7003 13.1359 17.7753 13.1359ZM6.96563 14.6385L6.75916 14.6381C4.14636 14.6381 4.01237 14.8255 4.0055 17.0186L4.00592 17.873C4.01067 18.7452 4.0439 19.3753 4.27653 19.6654C4.54192 19.9939 5.33007 20.1461 6.75916 20.1461C8.18826 20.1461 8.97641 19.9929 9.2418 19.6644C9.5132 19.3269 9.5132 18.5258 9.5132 17.4161C9.5132 14.9123 9.5132 14.6503 6.96563 14.6385ZM17.9818 14.6385L17.7753 14.6381C15.1625 14.6381 15.0285 14.8255 15.0216 17.0186L15.0221 17.873C15.0268 18.7452 15.06 19.3753 15.2927 19.6654C15.5581 19.9939 16.3462 20.1461 17.7753 20.1461C19.2044 20.1461 19.9925 19.9929 20.2579 19.6644C20.5293 19.3269 20.5293 18.5258 20.5293 17.4161C20.5293 14.9123 20.5293 14.6503 17.9818 14.6385ZM6.75916 2.11972C10.8341 2.11972 11.0154 3.50174 11.0154 6.37596C11.0154 7.81606 11.0154 8.84057 10.4105 9.59066C9.71449 10.4549 8.44764 10.6322 6.75916 10.6322C5.07069 10.6322 3.80384 10.4549 3.10782 9.59066C2.50293 8.84057 2.50293 7.81707 2.50293 6.40099L3.25403 6.37596H2.50293C2.50293 3.50174 2.6842 2.11972 6.75916 2.11972ZM17.7753 2.11972C21.8503 2.11972 22.0315 3.50174 22.0315 6.37596C22.0315 7.81606 22.0315 8.84057 21.4266 9.59066C20.7306 10.4549 19.4638 10.6322 17.7753 10.6322C16.0868 10.6322 14.82 10.4549 14.124 9.59066C13.5191 8.84057 13.5191 7.81707 13.5191 6.40099L14.2702 6.37596H13.5191C13.5191 3.50174 13.7003 2.11972 17.7753 2.11972ZM6.96563 3.62237L6.75916 3.62192C4.14636 3.62192 4.01237 3.80941 4.0055 6.00246L4.00592 6.85684C4.01067 7.72908 4.0439 8.35915 4.27653 8.64929C4.54192 8.97777 5.33007 9.12999 6.75916 9.12999C8.18826 9.12999 8.97641 8.97677 9.2418 8.64828C9.5132 8.31079 9.5132 7.50962 9.5132 6.39999C9.5132 3.89612 9.5132 3.63416 6.96563 3.62237ZM17.9818 3.62237L17.7753 3.62192C15.1625 3.62192 15.0285 3.80941 15.0216 6.00246L15.0221 6.85684C15.0268 7.72908 15.06 8.35915 15.2927 8.64929C15.5581 8.97777 16.3462 9.12999 17.7753 9.12999C19.2044 9.12999 19.9925 8.97677 20.2579 8.64828C20.5293 8.31079 20.5293 7.50962 20.5293 6.39999C20.5293 3.89612 20.5293 3.63416 17.9818 3.62237Z" fill="#373B5C"/>
</svg>
