<svg width="25" height="25" viewBox="0 0 25 25" fill="none" xmlns="http://www.w3.org/2000/svg">
<path d="M15.9722 3.90257C15.9321 4.15294 15.9121 4.4033 15.9121 4.65367C15.9121 6.90697 17.7348 8.72864 19.978 8.72864C20.2284 8.72864 20.4688 8.6996 20.7191 8.65954V16.7404C20.7191 20.1364 18.7162 22.1493 15.3112 22.1493H7.91136C4.50538 22.1493 2.50244 20.1364 2.50244 16.7404V9.33052C2.50244 5.92553 4.50538 3.90257 7.91136 3.90257H15.9722ZM16.1735 9.99149C15.9021 9.96145 15.6327 10.0816 15.4714 10.3019L13.0489 13.4365L10.2738 11.2533C10.1036 11.1231 9.90328 11.0721 9.70299 11.0931C9.5037 11.1231 9.32343 11.2323 9.20226 11.3925L6.23891 15.2492L6.17783 15.3393C6.00758 15.6588 6.08769 16.0694 6.38813 16.2907C6.52834 16.3808 6.67856 16.4409 6.84881 16.4409C7.08015 16.451 7.29947 16.3298 7.43967 16.1405L9.95336 12.9048L12.8075 15.0489L12.8977 15.108C13.2181 15.2782 13.6187 15.1991 13.8491 14.8977L16.7433 11.1632L16.7032 11.1832C16.8635 10.9629 16.8935 10.6825 16.7834 10.4321C16.6742 10.1818 16.4328 10.0115 16.1735 9.99149ZM20.1183 2.11966C21.4503 2.11966 22.5319 3.20124 22.5319 4.5332C22.5319 5.86515 21.4503 6.94673 20.1183 6.94673C18.7864 6.94673 17.7048 5.86515 17.7048 4.5332C17.7048 3.20124 18.7864 2.11966 20.1183 2.11966Z" fill="#373B5C"/>
</svg>
