<svg width="25" height="25" viewBox="0 0 25 25" fill="none" xmlns="http://www.w3.org/2000/svg">
<path fill-rule="evenodd" clip-rule="evenodd" d="M11.7899 2.48535C14.2395 2.48535 16.2324 4.47827 16.2324 6.92786V7.86123C16.2324 8.27583 15.8959 8.61233 15.4813 8.61233C15.0667 8.61233 14.7302 8.27583 14.7302 7.86123V6.92786C14.7302 5.30548 13.4113 3.98755 11.7899 3.98755H6.90776C5.28839 3.98755 3.97046 5.30548 3.97046 6.92786V18.0732C3.97046 19.6946 5.28839 21.0125 6.90776 21.0125H11.8009C13.4153 21.0125 14.7302 19.6986 14.7302 18.0842V17.1398C14.7302 16.7252 15.0667 16.3887 15.4813 16.3887C15.8959 16.3887 16.2324 16.7252 16.2324 17.1398V18.0842C16.2324 20.5278 14.2435 22.5147 11.8009 22.5147H6.90776C4.46018 22.5147 2.46826 20.5228 2.46826 18.0732V6.92786C2.46826 4.47827 4.46018 2.48535 6.90776 2.48535H11.7899ZM19.8819 9.04897L22.8142 11.9682C22.8403 11.9942 22.8638 12.0212 22.8852 12.0498L22.8142 11.9682C22.8496 12.0032 22.8812 12.0414 22.9086 12.0822C22.9206 12.1007 22.9323 12.1198 22.943 12.1394C22.9518 12.1547 22.9598 12.1708 22.9673 12.187C22.9736 12.2014 22.9797 12.2158 22.9853 12.2304C22.9928 12.2494 22.9994 12.269 23.0052 12.2888C23.0096 12.3044 23.0136 12.32 23.0172 12.3358C23.0216 12.3549 23.0252 12.3742 23.0279 12.3935C23.0295 12.4062 23.031 12.4194 23.0322 12.4327C23.0345 12.4555 23.0355 12.4777 23.0355 12.5L23.0304 12.5621L23.0283 12.6019C23.0281 12.6036 23.0279 12.6053 23.0276 12.607L23.0355 12.5C23.0355 12.5556 23.0293 12.6107 23.0174 12.6642C23.0136 12.68 23.0096 12.6956 23.0051 12.711C22.9994 12.731 22.9928 12.7506 22.9854 12.7699C22.9797 12.7843 22.9736 12.7986 22.9671 12.8128C22.9598 12.8293 22.9518 12.8453 22.9431 12.861C22.9323 12.8803 22.9206 12.8994 22.9082 12.9179C22.9012 12.9289 22.8935 12.9397 22.8855 12.9503C22.8616 12.9817 22.8356 13.0112 22.8075 13.0385L19.8819 15.9521C19.7357 16.0983 19.5434 16.1714 19.3521 16.1714C19.1598 16.1714 18.9665 16.0983 18.8203 15.9501C18.5279 15.6556 18.5289 15.1809 18.8223 14.8885L20.4646 13.2511H10.2254C9.81082 13.2511 9.47432 12.9146 9.47432 12.5C9.47432 12.0854 9.81082 11.7489 10.2254 11.7489H20.4666L18.8223 10.1125C18.5289 9.8201 18.5269 9.3454 18.8203 9.05097C19.1127 8.75654 19.5874 8.75654 19.8819 9.04897Z" fill="black"/>
</svg>
